<?xml version="1.0" encoding="UTF-8" standalone="no"?>
<svg
   xmlns:dc="http://purl.org/dc/elements/1.1/"
   xmlns:cc="http://creativecommons.org/ns#"
   xmlns:rdf="http://www.w3.org/1999/02/22-rdf-syntax-ns#"
   xmlns:svg="http://www.w3.org/2000/svg"
   xmlns="http://www.w3.org/2000/svg"
   id="svg4"
   version="1.1"
   viewBox="0 0 16 16"
   height="16"
   width="16">
  <metadata
     id="metadata10">
    <rdf:RDF>
      <cc:Work
         rdf:about="">
        <dc:format>image/svg+xml</dc:format>
        <dc:type
           rdf:resource="http://purl.org/dc/dcmitype/StillImage" />
        <dc:title></dc:title>
      </cc:Work>
    </rdf:RDF>
  </metadata>
  <defs
     id="defs8" />
  <path
     id="path2"
     d="M 11.913575,1.1230607 C 10.593956,0.3611794 9.3567172,-0.24830208 8.3320056,-0.61097878 7.8196498,-0.79231718 7.3685153,-0.91944754 6.908556,-0.95017912 6.6785763,-0.9655449 6.4412911,-0.96103283 6.1690992,-0.87643373 5.8969073,-0.79183465 5.5674998,-0.58425513 5.381449,-0.2621837 5.0849154,0.21556774 4.8065956,0.6944298 4.5344566,1.1657884 4.3472159,1.4899169 4.3342587,1.8594056 4.3872235,2.1317412 c 3.881e-4,0.00203 0.00103,0.00332 0.00143,0.00534 C 3.805171,2.9586237 3.2987057,3.598737 2.4410072,4.6706629 1.8913168,5.3576495 1.2255943,6.2292552 0.66965922,7.1098213 0.11372405,7.9903874 -0.37624567,8.8146199 -0.43462382,9.7920269 c -0.0553517,0.9267431 0.38012664,1.7139071 0.89934267,2.3211991 0.51921522,0.607294 1.15362545,1.097403 1.75537025,1.529922 1.2034865,0.865038 2.4209281,1.567598 3.7893784,2.178792 0.6842304,0.305586 1.4352066,0.607963 2.2254103,0.754851 0.7902049,0.146885 1.6897563,0.138973 2.4656782,-0.376148 0.799046,-0.530475 1.260125,-1.345362 1.730033,-2.246506 0.469912,-0.90116 0.876985,-1.894453 1.186352,-2.722797 0.493968,-1.3225951 0.790325,-2.1464687 1.228573,-3.1201392 0.252523,-0.096577 0.542268,-0.2710953 0.718926,-0.5772487 l 0.0029,-0.00508 0.790703,-1.4085989 C 16.543982,5.7981217 16.55986,5.4141386 16.499325,5.1373407 16.43879,4.8605432 16.32688,4.6528167 16.200489,4.4596266 15.947708,4.0732464 15.61333,3.7386775 15.202106,3.3802834 14.379657,2.6634949 13.23703,1.8871593 11.913575,1.1230607 Z m -1,1.7320509 c 1.244033,0.718244 2.313086,1.4563127 2.97556,2.0336788 0.283698,0.2472509 0.443025,0.4355106 0.545933,0.5700405 L 14.003812,6.229229 C 13.829428,6.2167105 13.556923,6.1780385 13.178932,6.0642126 12.331918,5.8091484 11.147242,5.2881439 9.9184589,4.5787056 8.6896759,3.8692674 7.6444431,3.1028334 7.000044,2.4968297 6.7124728,2.2263924 6.5427287,2.0097333 6.4446957,1.8649712 6.5988704,1.5994229 6.7549289,1.3385914 6.9108992,1.0809209 c 0.1669654,0.024273 0.4036836,0.067985 0.754988,0.1923227 0.8286642,0.2932894 1.9998166,0.8614102 3.2476878,1.581868 z m 1.833008,5.1493556 c -0.310475,0.7969506 -0.647904,1.5754951 -1.003053,2.5263998 -0.291439,0.780348 -0.678217,1.716142 -1.086265,2.498655 -0.408045,0.782515 -0.9119461,1.405417 -1.0634346,1.505984 -0.174613,0.11592 -0.4831177,0.170853 -0.9933518,0.07601 C 8.0902441,14.516663 7.4512984,14.274397 6.8252952,13.994815 5.5732933,13.435641 4.4888488,12.810852 3.3860479,12.018172 2.8346395,11.621847 2.3147916,11.198179 1.9848625,10.812283 1.6549335,10.426386 1.5466024,10.140598 1.5603225,9.9108891 1.5710162,9.731844 1.8733601,8.9488164 2.3609544,8.1764978 2.8485488,7.4041789 3.4772367,6.5757167 4.0023684,5.919423 4.6266793,5.1391778 5.0800543,4.5040505 5.5669978,3.8773739 c 0.026229,0.025154 0.037645,0.050293 0.064588,0.07563 0.8096365,0.7613959 1.9479592,1.5847307 3.2868719,2.3577523 1.3389129,0.7730217 2.6194119,1.3461942 3.6836179,1.6666617 0.05235,0.015767 0.09328,0.012445 0.144507,0.02705 z"
     style="color:#000000;font-style:normal;font-variant:normal;font-weight:normal;font-stretch:normal;font-size:medium;line-height:normal;font-family:sans-serif;font-variant-ligatures:normal;font-variant-position:normal;font-variant-caps:normal;font-variant-numeric:normal;font-variant-alternates:normal;font-feature-settings:normal;text-indent:0;text-align:start;text-decoration:none;text-decoration-line:none;text-decoration-style:solid;text-decoration-color:#000000;letter-spacing:normal;word-spacing:normal;text-transform:none;writing-mode:lr-tb;direction:ltr;text-orientation:mixed;dominant-baseline:auto;baseline-shift:baseline;text-anchor:start;white-space:normal;shape-padding:0;clip-rule:nonzero;display:inline;overflow:visible;visibility:visible;opacity:1;isolation:auto;mix-blend-mode:normal;color-interpolation:sRGB;color-interpolation-filters:linearRGB;solid-color:#000000;solid-opacity:1;vector-effect:none;fill:#8a8a8a;fill-opacity:1;fill-rule:nonzero;stroke:none;stroke-width:2;stroke-linecap:butt;stroke-linejoin:miter;stroke-miterlimit:4;stroke-dasharray:none;stroke-dashoffset:0;stroke-opacity:1;color-rendering:auto;image-rendering:auto;shape-rendering:auto;text-rendering:auto;enable-background:accumulate" />
</svg>
