<?xml version="1.0" encoding="UTF-8" standalone="no"?>
<svg
   xmlns:dc="http://purl.org/dc/elements/1.1/"
   xmlns:cc="http://creativecommons.org/ns#"
   xmlns:rdf="http://www.w3.org/1999/02/22-rdf-syntax-ns#"
   xmlns:svg="http://www.w3.org/2000/svg"
   xmlns="http://www.w3.org/2000/svg"
   id="svg4"
   version="1.1"
   viewBox="0 0 16 16"
   height="16"
   width="16">
  <metadata
     id="metadata10">
    <rdf:RDF>
      <cc:Work
         rdf:about="">
        <dc:format>image/svg+xml</dc:format>
        <dc:type
           rdf:resource="http://purl.org/dc/dcmitype/StillImage" />
        <dc:title></dc:title>
      </cc:Work>
    </rdf:RDF>
  </metadata>
  <defs
     id="defs8" />
  <path
     id="path2"
     d="M 6.0447894,0.36856112 C 4.5729463,0.76294153 3.2671181,1.2068325 2.2860863,1.6749621 1.7955703,1.9090269 1.3866754,2.1381323 1.0397046,2.4416421 0.86621912,2.5933971 0.70162367,2.7643736 0.5689755,3.016663 0.43632737,3.2689523 0.35018192,3.6486594 0.44636307,4.007956 0.5745034,4.5554583 0.7163082,5.0908667 0.85717771,5.6165989 0.95397203,5.9781915 1.2060779,6.2486216 1.4361,6.4037402 c 0.00171,0.00116 0.00307,0.00162 0.00479,0.00277 0.1683322,0.9935018 0.2628356,1.8042553 0.4143172,3.1687058 0.097083,0.8744623 0.2426646,1.9615183 0.4722133,2.9772773 0.2295488,1.01576 0.4659082,1.945041 1.1157598,2.677452 0.6161667,0.694446 1.4807055,0.943125 2.2772669,1.005404 0.7965626,0.06228 1.5917174,-0.03975 2.3230521,-0.159416 1.4626679,-0.239319 2.820314,-0.603395 4.220134,-1.138856 0.699906,-0.267742 1.444739,-0.58495 2.107363,-1.039843 0.662623,-0.454895 1.293107,-1.096569 1.477521,-2.009474 0.189908,-0.940114 -0.06027,-1.842358 -0.365201,-2.8118375 C 15.178376,8.1064236 14.763856,7.1162157 14.396884,6.3117323 13.810956,5.0272286 13.437946,4.235106 13.059345,3.2367283 13.169615,2.989878 13.251093,2.6615939 13.159526,2.3201945 l -0.0016,-0.00563 -0.436918,-1.55514157 c -0.09631,-0.35928605 -0.356596,-0.64203047 -0.595126,-0.79495119 -0.23853,-0.15292058 -0.464547,-0.22067322 -0.690525,-0.26790736 -0.451956,-0.094469 -0.924973,-0.0946036 -1.4691744,-0.0572478 -1.0884052,0.0747131 -2.445317,0.3337206 -3.9214402,0.72924524 z M 6.5624274,2.3004132 C 7.949967,1.9286237 9.2277947,1.694583 10.104494,1.6344021 c 0.375438,-0.025772 0.621219,-0.00531 0.789113,0.017047 l 0.239809,0.8496978 C 11.001256,2.615603 10.781221,2.7809475 10.433454,2.9677404 9.6541667,3.3863128 8.4480686,3.8555992 7.0775391,4.2228313 5.7070098,4.5900635 4.425968,4.787204 3.5417997,4.8143536 3.147228,4.8264692 2.8739997,4.7932953 2.7023176,4.7602528 2.6235646,4.4634638 2.5494789,4.168678 2.477566,3.8761898 2.6127922,3.7752912 2.8110861,3.638815 3.1474159,3.4783254 3.940757,3.0997579 5.1706089,2.6733501 6.5624274,2.3004132 Z m 4.9372766,2.3450114 c 0.34399,0.7830683 0.655906,1.5721814 1.077169,2.4957 0.345711,0.7578682 0.733924,1.6930676 0.998711,2.5349214 0.26479,0.841853 0.348937,1.638623 0.312929,1.816854 -0.0415,0.205439 -0.220805,0.462426 -0.648659,0.756152 -0.427861,0.293719 -1.050971,0.574214 -1.691317,0.819171 C 10.267842,13.558126 9.0592312,13.883152 7.7189238,14.10244 7.0487755,14.212101 6.3816089,14.280111 5.8754442,14.240536 5.3692788,14.200961 5.0905945,14.07548 4.9378674,13.903349 4.8188249,13.769184 4.4789302,13.00171 4.2775997,12.110817 4.0762691,11.219924 3.9350073,10.189563 3.8422618,9.3541694 3.7319997,8.3609982 3.6034813,7.5913109 3.5046751,6.8038625 c 0.036334,-7.599e-4 0.062182,0.00894 0.09915,0.00781 C 4.7147124,6.777559 6.1018136,6.554829 7.5951768,6.1546835 9.08854,5.7545382 10.399284,5.2543829 11.378396,4.7284804 c 0.04817,-0.025872 0.07476,-0.057158 0.121308,-0.083056 z"
     style="color:#000000;font-style:normal;font-variant:normal;font-weight:normal;font-stretch:normal;font-size:medium;line-height:normal;font-family:sans-serif;font-variant-ligatures:normal;font-variant-position:normal;font-variant-caps:normal;font-variant-numeric:normal;font-variant-alternates:normal;font-feature-settings:normal;text-indent:0;text-align:start;text-decoration:none;text-decoration-line:none;text-decoration-style:solid;text-decoration-color:#000000;letter-spacing:normal;word-spacing:normal;text-transform:none;writing-mode:lr-tb;direction:ltr;text-orientation:mixed;dominant-baseline:auto;baseline-shift:baseline;text-anchor:start;white-space:normal;shape-padding:0;clip-rule:nonzero;display:inline;overflow:visible;visibility:visible;opacity:1;isolation:auto;mix-blend-mode:normal;color-interpolation:sRGB;color-interpolation-filters:linearRGB;solid-color:#000000;solid-opacity:1;vector-effect:none;fill:#b1b1b3;fill-opacity:1;fill-rule:nonzero;stroke:none;stroke-width:2;stroke-linecap:butt;stroke-linejoin:miter;stroke-miterlimit:4;stroke-dasharray:none;stroke-dashoffset:0;stroke-opacity:1;color-rendering:auto;image-rendering:auto;shape-rendering:auto;text-rendering:auto;enable-background:accumulate" />
</svg>
