<?xml version="1.0" encoding="UTF-8" standalone="no"?>
<svg
   xmlns:dc="http://purl.org/dc/elements/1.1/"
   xmlns:cc="http://creativecommons.org/ns#"
   xmlns:rdf="http://www.w3.org/1999/02/22-rdf-syntax-ns#"
   xmlns:svg="http://www.w3.org/2000/svg"
   xmlns="http://www.w3.org/2000/svg"
   id="svg4"
   version="1.1"
   viewBox="0 0 16 16"
   height="16"
   width="16">
  <metadata
     id="metadata10">
    <rdf:RDF>
      <cc:Work
         rdf:about="">
        <dc:format>image/svg+xml</dc:format>
        <dc:type
           rdf:resource="http://purl.org/dc/dcmitype/StillImage" />
        <dc:title></dc:title>
      </cc:Work>
    </rdf:RDF>
  </metadata>
  <defs
     id="defs8" />
  <path
     id="path2"
     d="M 10.027049,0.33174963 C 8.5552054,-0.06262865 7.2023791,-0.3311216 6.1187161,-0.41622552 5.5768845,-0.4587775 5.1082183,-0.46481381 4.6559778,-0.375452 4.4298575,-0.33077108 4.2018254,-0.26499882 3.9608041,-0.11283393 3.7197828,0.03933095 3.4553251,0.32509431 3.3589721,0.6843449 3.1961938,1.2225659 3.0512961,1.7571456 2.9104266,2.2828778 c -0.09697,0.3615456 -0.013855,0.7217978 0.1077907,0.9711455 9.002e-4,0.00186 0.00185,0.00294 0.00276,0.00479 C 2.6700107,4.2033767 2.3464763,4.9527616 1.795438,6.2101512 1.4422831,7.0159996 1.0248327,8.0302077 0.71574792,9.0246559 0.40666305,10.019104 0.14671572,10.942065 0.3432983,11.901277 c 0.1863931,0.909491 0.8107659,1.557123 1.4694688,2.009339 0.6587026,0.452218 1.3983455,0.76143 2.0915304,1.023468 1.3863669,0.524077 2.7441612,0.887601 4.2241713,1.123788 0.7400074,0.118082 1.5436557,0.215789 2.3449512,0.153152 0.801296,-0.06264 1.668148,-0.303104 2.284308,-1.001496 0.634522,-0.719208 0.868982,-1.625664 1.089645,-2.617723 0.220663,-0.992076 0.356782,-2.056882 0.441216,-2.9370709 0.134824,-1.4053771 0.207849,-2.2778808 0.379159,-3.3318011 0.218923,-0.1586435 0.453626,-0.4022072 0.545026,-0.7436511 l 0.0015,-0.00566 0.399188,-1.565251 C 15.709673,3.6490744 15.625628,3.2740656 15.495515,3.022367 15.365403,2.7706686 15.203542,2.5989848 15.031457,2.4450897 14.687286,2.1372998 14.277709,1.9006745 13.787738,1.6609249 12.807795,1.1814258 11.503172,0.72727675 10.027049,0.33174963 Z M 9.509411,2.2636013 c 1.387539,0.371791 2.611191,0.8080194 3.400525,1.1942513 0.338024,0.1653997 0.540648,0.3060076 0.674868,0.409319 l -0.217168,0.8557648 c -0.171682,0.033042 -0.44491,0.066217 -0.839482,0.054101 C 11.643986,4.7498876 10.364831,4.5532526 8.9943014,4.1860203 7.6237721,3.8187881 6.415787,3.3489959 5.6365,2.930424 5.2887332,2.7436305 5.0686975,2.5782869 4.9365377,2.4638303 5.0167301,2.1674269 5.0999629,1.8750922 5.1839286,1.5858335 5.351487,1.5660652 5.5914529,1.5470213 5.9629677,1.5761977 6.8393048,1.6450194 8.1175916,1.8906654 9.509411,2.2636013 Z m 3.103301,4.4994782 c -0.09363,0.8501521 -0.218059,1.6895013 -0.314994,2.6999243 -0.07954,0.8291882 -0.210938,1.8332012 -0.402552,2.6946612 -0.191612,0.861461 -0.517124,1.593558 -0.637422,1.729906 -0.138661,0.157163 -0.422436,0.290071 -0.939832,0.330516 -0.5173978,0.04044 -1.1972751,-0.0282 -1.8743089,-0.136234 C 7.0895374,13.865775 5.8803372,13.54295 4.6099524,13.062705 3.9747565,12.8226 3.3629687,12.547915 2.9444044,12.26056 2.52584,11.973204 2.3472328,11.725192 2.3010323,11.499759 2.2650213,11.324047 2.3544006,10.489448 2.6254898,9.6172468 2.896579,8.7450453 3.2894231,7.7820959 3.6268,7.0122508 4.0278957,6.0970083 4.3014393,5.3661803 4.6095948,4.6348269 c 0.031845,0.017508 0.049379,0.038836 0.081962,0.056336 0.9791125,0.5259026 2.2917426,1.0265634 3.7851056,1.4267088 1.4933631,0.4001455 2.8785786,0.62237 3.9894656,0.6564811 0.05465,0.00168 0.09332,-0.012121 0.146584,-0.011273 z"
     style="color:#000000;font-style:normal;font-variant:normal;font-weight:normal;font-stretch:normal;font-size:medium;line-height:normal;font-family:sans-serif;font-variant-ligatures:normal;font-variant-position:normal;font-variant-caps:normal;font-variant-numeric:normal;font-variant-alternates:normal;font-feature-settings:normal;text-indent:0;text-align:start;text-decoration:none;text-decoration-line:none;text-decoration-style:solid;text-decoration-color:#000000;letter-spacing:normal;word-spacing:normal;text-transform:none;writing-mode:lr-tb;direction:ltr;text-orientation:mixed;dominant-baseline:auto;baseline-shift:baseline;text-anchor:start;white-space:normal;shape-padding:0;clip-rule:nonzero;display:inline;overflow:visible;visibility:visible;opacity:1;isolation:auto;mix-blend-mode:normal;color-interpolation:sRGB;color-interpolation-filters:linearRGB;solid-color:#000000;solid-opacity:1;vector-effect:none;fill:#8a8a8a;fill-opacity:1;fill-rule:nonzero;stroke:none;stroke-width:2;stroke-linecap:butt;stroke-linejoin:miter;stroke-miterlimit:4;stroke-dasharray:none;stroke-dashoffset:0;stroke-opacity:1;color-rendering:auto;image-rendering:auto;shape-rendering:auto;text-rendering:auto;enable-background:accumulate" />
</svg>
