<?xml version="1.0" encoding="UTF-8" standalone="no"?>
<svg
   xmlns:dc="http://purl.org/dc/elements/1.1/"
   xmlns:cc="http://creativecommons.org/ns#"
   xmlns:rdf="http://www.w3.org/1999/02/22-rdf-syntax-ns#"
   xmlns:svg="http://www.w3.org/2000/svg"
   xmlns="http://www.w3.org/2000/svg"
   id="svg4"
   version="1.1"
   viewBox="0 0 16 16"
   height="16"
   width="16">
  <metadata
     id="metadata10">
    <rdf:RDF>
      <cc:Work
         rdf:about="">
        <dc:format>image/svg+xml</dc:format>
        <dc:type
           rdf:resource="http://purl.org/dc/dcmitype/StillImage" />
        <dc:title></dc:title>
      </cc:Work>
    </rdf:RDF>
  </metadata>
  <defs
     id="defs8" />
  <path
     id="path2"
     d="m 2.5523894,2.4146565 c -1.0774633,1.0774649 -1.98639815,2.1147999 -2.60193184,3.010728 -0.30776693,0.447964 -0.5473276,0.8508226 -0.69605823,1.2871552 -0.0743653,0.2181664 -0.13142091,0.4485341 -0.1201529,0.7333472 0.011268,0.284813 0.12651737,0.6567218 0.38946103,0.9197912 0.38472392,0.4100807 0.77523468,0.8028555 1.16009735,1.1877182 0.26462264,0.2647512 0.61816779,0.3728977 0.89493209,0.3922233 0.00206,1.501e-4 0.00346,-1.309e-4 0.00553,8.8e-6 0.6425309,0.7762316 1.12975,1.4311126 1.9431622,2.5370216 0.5213075,0.708765 1.1909128,1.577392 1.8975873,2.34229 0.706675,0.7649 1.3760089,1.451502 2.3050023,1.760862 0.880839,0.293325 1.7538911,0.07642 2.4748726,-0.267928 0.720984,-0.344345 1.358593,-0.830283 1.932115,-1.299584 1.147047,-0.938591 2.140766,-1.932713 3.085315,-3.096346 0.472265,-0.581824 0.958705,-1.228951 1.305108,-1.9542119 0.346401,-0.7252618 0.571579,-1.59621 0.274834,-2.4790154 C 16.496675,6.5795951 15.828892,5.9233177 15.080074,5.2361895 14.331239,4.5490485 13.477149,3.8987636 12.757101,3.3855464 11.607421,2.5660976 10.888324,2.0666042 10.061256,1.3912844 10.033328,1.1223707 9.9397482,0.79732926 9.6897487,0.54745223 l -0.0042,-0.004072 -1.1559523,-1.12833327 C 8.266545,-0.84795232 7.899759,-0.96267332 7.6167254,-0.9758415 7.3336921,-0.98900959 7.1040793,-0.9346766 6.8847595,-0.86259356 6.4461197,-0.71842813 6.0364076,-0.48203619 5.5837933,-0.17758442 4.6785633,0.43132162 3.6329469,1.3340846 2.5523491,2.4146806 Z M 3.9666031,3.8288704 C 4.982353,2.8131215 5.9719639,1.9715225 6.7011172,1.4810546 7.0133701,1.2710164 7.2364536,1.1658465 7.3930326,1.1012613 L 8.0255622,1.7172166 C 7.9683363,1.8824185 7.8604528,2.1356286 7.6526741,2.4712795 7.1870777,3.2234174 6.3772093,4.2328804 5.373912,5.2361775 4.3706149,6.2394746 3.3597704,7.0507242 2.607633,7.5163206 2.2719817,7.7240988 2.0187721,7.8319836 1.8535698,7.889209 1.6369732,7.6715586 1.4254202,7.4533095 1.2168977,7.2359637 1.2835577,7.0809699 1.3870472,6.8636311 1.5980725,6.5564781 2.0958423,5.8319585 2.9477214,4.8477526 3.9666031,3.8288704 Z M 9.4149159,3.3910716 c 0.6894381,0.506162 1.3541221,1.033596 2.1807061,1.6227551 0.678328,0.4834776 1.48213,1.0992776 2.13237,1.6959507 0.650241,0.5966711 1.121499,1.2446207 1.179431,1.4169775 0.06678,0.1986646 0.03999,0.5108764 -0.18368,0.9791765 -0.223679,0.4682983 -0.62306,1.0227686 -1.055137,1.5550806 -0.864164,1.064617 -1.748338,1.950403 -2.799434,2.810465 -0.525535,0.430044 -1.0693133,0.822526 -1.5274524,1.041335 -0.4581393,0.218811 -0.7622283,0.24948 -0.9805576,0.17678 C 8.1909844,14.632918 7.5128901,14.138214 6.8930862,13.467343 6.2732823,12.796473 5.6357655,11.974785 5.1377488,11.297686 4.5456733,10.492705 4.0495295,9.8903953 3.5702367,9.2578481 3.6013228,9.239023 3.6285578,9.2344993 3.660008,9.2150367 4.6050079,8.6300499 5.6949078,7.7436096 6.7881255,6.6503917 7.8813433,5.5571741 8.7664032,4.468655 9.3513881,3.523654 c 0.028778,-0.04649 0.036166,-0.086881 0.06353,-0.1325829 z"
     style="color:#000000;font-style:normal;font-variant:normal;font-weight:normal;font-stretch:normal;font-size:medium;line-height:normal;font-family:sans-serif;font-variant-ligatures:normal;font-variant-position:normal;font-variant-caps:normal;font-variant-numeric:normal;font-variant-alternates:normal;font-feature-settings:normal;text-indent:0;text-align:start;text-decoration:none;text-decoration-line:none;text-decoration-style:solid;text-decoration-color:#000000;letter-spacing:normal;word-spacing:normal;text-transform:none;writing-mode:lr-tb;direction:ltr;text-orientation:mixed;dominant-baseline:auto;baseline-shift:baseline;text-anchor:start;white-space:normal;shape-padding:0;clip-rule:nonzero;display:inline;overflow:visible;visibility:visible;opacity:1;isolation:auto;mix-blend-mode:normal;color-interpolation:sRGB;color-interpolation-filters:linearRGB;solid-color:#000000;solid-opacity:1;vector-effect:none;fill:#b1b1b3;fill-opacity:1;fill-rule:nonzero;stroke:none;stroke-width:2;stroke-linecap:butt;stroke-linejoin:miter;stroke-miterlimit:4;stroke-dasharray:none;stroke-dashoffset:0;stroke-opacity:1;color-rendering:auto;image-rendering:auto;shape-rendering:auto;text-rendering:auto;enable-background:accumulate" />
</svg>
