<?xml version="1.0" encoding="UTF-8" standalone="no"?>
<svg
   xmlns:dc="http://purl.org/dc/elements/1.1/"
   xmlns:cc="http://creativecommons.org/ns#"
   xmlns:rdf="http://www.w3.org/1999/02/22-rdf-syntax-ns#"
   xmlns:svg="http://www.w3.org/2000/svg"
   xmlns="http://www.w3.org/2000/svg"
   id="svg4"
   version="1.1"
   viewBox="0 0 16 16"
   height="16"
   width="16">
  <metadata
     id="metadata10">
    <rdf:RDF>
      <cc:Work
         rdf:about="">
        <dc:format>image/svg+xml</dc:format>
        <dc:type
           rdf:resource="http://purl.org/dc/dcmitype/StillImage" />
        <dc:title></dc:title>
      </cc:Work>
    </rdf:RDF>
  </metadata>
  <defs
     id="defs8" />
  <path
     id="path2"
     d="M 7.9804688,0.078125 C 6.4567043,0.07812603 5.0804834,0.16891895 4.0117188,0.3671875 3.4773364,0.46632178 3.0230773,0.5817909 2.609375,0.78515625 2.4025239,0.88683892 2.1992849,1.0093891 2.0058594,1.21875 c -0.1934256,0.2093609 -0.3749111,0.5538338 -0.375,0.9257812 -0.01793,0.5620117 -0.019531,1.1158783 -0.019531,1.6601563 -9.07e-5,0.3743239 0.1734321,0.7007891 0.3554688,0.9101563 0.00135,0.00156 0.00255,0.00236 0.00391,0.00391 -0.094541,1.0032174 -0.2130962,1.8108045 -0.4199219,3.1679688 -0.1325525,0.869793 -0.2732823,1.9574869 -0.3144531,2.9980472 -0.041171,1.04056 -0.053381,1.999351 0.3847657,2.875 0.4154353,0.830258 1.1861526,1.294223 1.9394531,1.560546 0.7533004,0.266324 1.5477705,0.373566 2.2851562,0.447266 1.4747686,0.147401 2.880384,0.147115 4.3710939,-0.0078 0.745354,-0.07747 1.546907,-0.191092 2.304687,-0.458985 0.757781,-0.267893 1.532859,-0.724524 1.947266,-1.558593 0.426757,-0.858928 0.41862,-1.79518 0.375,-2.810547 C 14.80013,9.9162731 14.656019,8.8525189 14.509766,7.9804688 14.276258,6.5880837 14.120974,5.7264096 14.013672,4.6640625 c 0.170403,-0.2098992 0.33407,-0.5059093 0.333984,-0.859375 v -0.00586 L 14.328125,2.1835938 C 14.328049,1.8116433 14.149808,1.4711652 13.958984,1.2617188 13.768161,1.0522723 13.567381,0.92833092 13.361328,0.82421875 12.949223,0.61599441 12.492359,0.49343817 11.957031,0.38867188 10.886375,0.17913929 9.5086644,0.07812603 7.9804688,0.078125 Z m 0,2 c 1.4364864,1e-6 2.7313472,0.104661 3.5937502,0.2734375 0.369314,0.072277 0.601426,0.1556508 0.757812,0.2207031 l 0.01172,0.8828125 c -0.15728,0.076351 -0.412612,0.1791117 -0.796875,0.2695313 -0.861068,0.2026151 -2.1475298,0.34375 -3.5664062,0.34375 -1.4188764,0 -2.7072916,-0.1411349 -3.5683594,-0.34375 -0.3842626,-0.09042 -0.6395949,-0.1931802 -0.796875,-0.2695313 7.451e-4,-0.307059 0.00548,-0.6109749 0.011719,-0.9121093 0.1567326,-0.062462 0.3835929,-0.1429647 0.75,-0.2109376 C 5.2412434,2.1716951 6.5395516,2.078126 7.9804688,2.078125 Z m 4.1621092,3.5429688 c 0.129595,0.8454174 0.226646,1.6883709 0.394531,2.6894531 0.13778,0.8215209 0.270717,1.8253311 0.308594,2.7070311 0.03788,0.8817 -0.08706,1.6731 -0.167969,1.835938 -0.09326,0.187696 -0.332966,0.389521 -0.822265,0.5625 -0.4893,0.172978 -1.163778,0.282636 -1.845703,0.353515 -1.363852,0.141743 -2.615403,0.142882 -3.9667972,0.0078 C 5.3672731,13.709809 4.7052378,13.602826 4.2265625,13.433594 3.7478872,13.264362 3.5111758,13.071028 3.4082031,12.865234 3.3279417,12.70483 3.1982653,11.875536 3.234375,10.962891 3.2704847,10.050246 3.4007133,9.0184328 3.5273438,8.1875 3.6778903,7.1996324 3.7529609,6.4229085 3.8613281,5.6367188 c 0.035291,0.00867 0.057748,0.024732 0.09375,0.033203 1.0818637,0.2545699 2.4793475,0.3984375 4.0253907,0.3984375 1.5460432,0 2.9415742,-0.1438676 4.0234372,-0.3984375 0.05322,-0.012523 0.087,-0.03586 0.138672,-0.048828 z"
     style="color:#000000;font-style:normal;font-variant:normal;font-weight:normal;font-stretch:normal;font-size:medium;line-height:normal;font-family:sans-serif;font-variant-ligatures:normal;font-variant-position:normal;font-variant-caps:normal;font-variant-numeric:normal;font-variant-alternates:normal;font-feature-settings:normal;text-indent:0;text-align:start;text-decoration:none;text-decoration-line:none;text-decoration-style:solid;text-decoration-color:#000000;letter-spacing:normal;word-spacing:normal;text-transform:none;writing-mode:lr-tb;direction:ltr;text-orientation:mixed;dominant-baseline:auto;baseline-shift:baseline;text-anchor:start;white-space:normal;shape-padding:0;clip-rule:nonzero;display:inline;overflow:visible;visibility:visible;opacity:1;isolation:auto;mix-blend-mode:normal;color-interpolation:sRGB;color-interpolation-filters:linearRGB;solid-color:#000000;solid-opacity:1;vector-effect:none;fill:#8a8a8a;fill-opacity:1;fill-rule:nonzero;stroke:none;stroke-width:2;stroke-linecap:butt;stroke-linejoin:miter;stroke-miterlimit:4;stroke-dasharray:none;stroke-dashoffset:0;stroke-opacity:1;color-rendering:auto;image-rendering:auto;shape-rendering:auto;text-rendering:auto;enable-background:accumulate" />
</svg>
