<?xml version="1.0" encoding="UTF-8" standalone="no"?>
<svg
   xmlns:dc="http://purl.org/dc/elements/1.1/"
   xmlns:cc="http://creativecommons.org/ns#"
   xmlns:rdf="http://www.w3.org/1999/02/22-rdf-syntax-ns#"
   xmlns:svg="http://www.w3.org/2000/svg"
   xmlns="http://www.w3.org/2000/svg"
   id="svg4"
   version="1.1"
   viewBox="0 0 16 16"
   height="16"
   width="16">
  <metadata
     id="metadata10">
    <rdf:RDF>
      <cc:Work
         rdf:about="">
        <dc:format>image/svg+xml</dc:format>
        <dc:type
           rdf:resource="http://purl.org/dc/dcmitype/StillImage" />
        <dc:title></dc:title>
      </cc:Work>
    </rdf:RDF>
  </metadata>
  <defs
     id="defs8" />
  <path
     id="path2"
     d="M 13.5231,2.3533705 C 12.445635,1.2759072 11.4083,0.36697229 10.512372,-0.24856138 10.064408,-0.55632826 9.6615494,-0.79588896 9.2252168,-0.94461961 9.0070504,-1.0189849 8.7766827,-1.0760405 8.4918696,-1.0647725 8.2070566,-1.0535045 7.8351478,-0.93825506 7.5720784,-0.67531144 7.1619977,-0.29058753 6.7692228,0.09992324 6.3843601,0.48478592 6.1196089,0.74940855 6.0114625,1.1029537 5.9921369,1.379718 c -1.505e-4,0.00206 1.356e-4,0.00347 -8e-7,0.00553 C 5.2159044,2.0277788 4.561023,2.5149979 3.455115,3.3284101 2.7463497,3.8497179 1.877723,4.5193227 1.1128236,5.2259976 c -0.76489939,0.706675 -1.45150087,1.3760089 -1.76086138,2.3050022 -0.2933244,0.880839 -0.0764177,1.7538912 0.26792778,2.4748732 0.34434414,0.720984 0.83028782,1.35859 1.29958451,1.932114 0.93859039,1.147048 1.93271279,2.140766 3.09634559,3.085315 0.5818243,0.472265 1.2289507,0.958706 1.9542115,1.305109 0.7252627,0.3464 1.5962104,0.571579 2.4790165,0.274833 0.9091162,-0.305591 1.5653929,-0.973375 2.2525219,-1.722192 0.687138,-0.748832 1.337423,-1.602921 1.85064,-2.32297 0.819449,-1.14968 1.318942,-1.868778 1.994262,-2.6958448 0.268914,-0.027928 0.593955,-0.1215087 0.843832,-0.3715077 l 0.0041,-0.00416 1.128333,-1.1559531 C 16.785735,8.0675702 16.900454,7.7007805 16.913622,7.4177467 16.92679,7.1347132 16.872457,6.9051004 16.800374,6.6857807 16.656209,6.2471415 16.419817,5.8374294 16.115365,5.3848147 15.506459,4.4795847 14.603696,3.4339684 13.5231,2.3533705 Z m -1.414214,1.4142137 c 1.015749,1.0157498 1.857348,2.0053607 2.347816,2.7345144 0.210038,0.3122525 0.315211,0.5353343 0.379793,0.6919147 L 14.22054,7.8265435 C 14.055338,7.7693176 13.802128,7.6614339 13.466477,7.4536552 12.714339,6.9880588 11.704876,6.1781904 10.701579,5.1748931 9.6982819,4.171596 8.8870323,3.1607515 8.4214359,2.4086141 8.2136577,2.0729628 8.105773,1.8197532 8.0485476,1.6545509 8.2661979,1.4379543 8.484447,1.2264013 8.7017928,1.0178788 c 0.1549938,0.06666 0.3723326,0.1701495 0.6794856,0.3811748 0.7245196,0.4977698 1.7087256,1.3496489 2.7276076,2.3685306 z m 0.437799,5.4483129 c -0.506162,0.6894383 -1.033596,1.3541219 -1.622755,2.1807059 -0.483478,0.678328 -1.0992779,1.48213 -1.6959513,2.132369 -0.596671,0.650242 -1.244621,1.1215 -1.4169763,1.179432 -0.1986655,0.06678 -0.5108759,0.03999 -0.979177,-0.183679 C 6.3635265,14.301046 5.8090554,13.901664 5.2767439,13.469587 4.2121278,12.605424 3.3263422,11.721249 2.466279,10.670153 2.0362358,10.144618 1.6437546,9.6008395 1.4249448,9.1427007 1.2061354,8.6845609 1.175463,8.3804727 1.2481686,8.162142 1.3048382,7.9919654 1.7995424,7.3138712 2.4704131,6.6940674 3.141284,6.0742634 3.9629717,5.4367467 4.6400712,4.9387298 5.4450516,4.3466544 6.0473612,3.8505106 6.6799084,3.3712177 c 0.018825,0.031086 0.023345,0.058323 0.042813,0.08977 0.5849851,0.9450013 1.4714256,2.0349012 2.5646433,3.1281189 1.0932176,1.0932178 2.1817366,1.9782774 3.1267376,2.563262 0.04649,0.028779 0.08688,0.036164 0.132583,0.063529 z"
     style="color:#000000;font-style:normal;font-variant:normal;font-weight:normal;font-stretch:normal;font-size:medium;line-height:normal;font-family:sans-serif;font-variant-ligatures:normal;font-variant-position:normal;font-variant-caps:normal;font-variant-numeric:normal;font-variant-alternates:normal;font-feature-settings:normal;text-indent:0;text-align:start;text-decoration:none;text-decoration-line:none;text-decoration-style:solid;text-decoration-color:#000000;letter-spacing:normal;word-spacing:normal;text-transform:none;writing-mode:lr-tb;direction:ltr;text-orientation:mixed;dominant-baseline:auto;baseline-shift:baseline;text-anchor:start;white-space:normal;shape-padding:0;clip-rule:nonzero;display:inline;overflow:visible;visibility:visible;opacity:1;isolation:auto;mix-blend-mode:normal;color-interpolation:sRGB;color-interpolation-filters:linearRGB;solid-color:#000000;solid-opacity:1;vector-effect:none;fill:#8a8a8a;fill-opacity:1;fill-rule:nonzero;stroke:none;stroke-width:2;stroke-linecap:butt;stroke-linejoin:miter;stroke-miterlimit:4;stroke-dasharray:none;stroke-dashoffset:0;stroke-opacity:1;color-rendering:auto;image-rendering:auto;shape-rendering:auto;text-rendering:auto;enable-background:accumulate" />
</svg>
