<?xml version="1.0" encoding="UTF-8" standalone="no"?>
<svg
   xmlns:dc="http://purl.org/dc/elements/1.1/"
   xmlns:cc="http://creativecommons.org/ns#"
   xmlns:rdf="http://www.w3.org/1999/02/22-rdf-syntax-ns#"
   xmlns:svg="http://www.w3.org/2000/svg"
   xmlns="http://www.w3.org/2000/svg"
   id="svg4"
   version="1.1"
   viewBox="0 0 16 16"
   height="16"
   width="16">
  <metadata
     id="metadata10">
    <rdf:RDF>
      <cc:Work
         rdf:about="">
        <dc:format>image/svg+xml</dc:format>
        <dc:type
           rdf:resource="http://purl.org/dc/dcmitype/StillImage" />
        <dc:title></dc:title>
      </cc:Work>
    </rdf:RDF>
  </metadata>
  <defs
     id="defs8" />
  <path
     id="path2"
     d="M 4.1584853,1.1738286 C 2.8388672,1.9357118 1.6924215,2.7024508 0.86597837,3.408539 0.45275672,3.7615831 0.11709142,4.0887117 -0.13950252,4.4716823 c -0.12829702,0.1914854 -0.24303204,0.3992365 -0.30586303,0.6772612 -0.062831,0.2780246 -0.0477657,0.6670896 0.13813099,0.98925 0.26547808,0.4956814 0.54102489,0.9761444 0.81316389,1.447503 0.18708319,0.3242194 0.50059117,0.5201851 0.76292317,0.610484 0.00195,6.779e-4 0.00338,7.702e-4 0.00534,0.00144 0.4197336,0.9160815 0.7208553,1.6747499 1.2203211,2.9535016 0.3201025,0.819539 0.7420743,1.831875 1.2266991,2.753611 0.4846251,0.921737 0.9534464,1.75818 1.7707168,2.29744 0.7749071,0.511308 1.6743504,0.527754 2.4598886,0.381746 0.7855396,-0.146008 1.5271929,-0.450362 2.2026362,-0.755234 1.350888,-0.609731 2.568044,-1.312786 3.781579,-2.192302 0.60676,-0.439768 1.244114,-0.938944 1.766425,-1.549837 0.522309,-0.610894 0.965232,-1.393885 0.907085,-2.3234129 C 16.549665,8.8058969 16.074494,7.9991469 15.529033,7.1416236 14.983559,6.2840836 14.326878,5.4349019 13.764195,4.75281 12.865778,3.663724 12.300462,2.9951344 11.676362,2.1287648 11.718985,1.8617857 11.712721,1.5235996 11.535913,1.2175323 l -0.003,-0.00502 -0.82453,-1.38906871 C 10.522361,-0.49867723 10.197765,-0.70442039 9.9277837,-0.79039436 9.6578026,-0.87636819 9.4219513,-0.88331471 9.1914482,-0.87045197 8.7304419,-0.8447272 8.2735077,-0.72243141 7.7575179,-0.54549879 6.7255364,-0.19163148 5.4818963,0.40974517 4.1584401,1.1738414 Z m 1,1.7320512 C 6.4025195,2.1876371 7.5762321,1.630845 8.4074826,1.3458082 8.7634576,1.2237439 9.0061597,1.1798958 9.1741193,1.1580369 L 9.625675,1.9167148 C 9.5276416,2.0614764 9.3578985,2.2781362 9.0703269,2.548573 8.4259277,3.1545773 7.3823866,3.9200343 6.1536034,4.6294724 4.9248205,5.3389106 3.7384528,5.8608917 2.8914387,6.1159558 2.5134474,6.2297812 2.2409431,6.2684544 2.0665589,6.2809724 1.9136747,6.014679 1.7658173,5.7491126 1.6206532,5.4852031 1.7251572,5.3527434 1.8813718,5.1695953 2.1647036,4.9275257 2.8330318,4.3565258 3.9106151,3.6263384 5.1584853,2.9058798 Z m 5.3759767,0.9872459 c 0.534942,0.6673547 1.040467,1.3488496 1.6864,2.1318692 0.530082,0.6425679 1.147114,1.4454242 1.620767,2.1900606 0.473655,0.7446349 0.761154,1.4924768 0.772502,1.6739543 0.01309,0.2091802 -0.0936,0.5038182 -0.43085,0.8982722 -0.337262,0.394449 -0.866542,0.826659 -1.421669,1.229003 -1.110261,0.804679 -2.193566,1.431441 -3.4314476,1.990154 -0.6189312,0.279372 -1.2457624,0.51774 -1.7449227,0.610518 -0.499161,0.09278 -0.8008262,0.0437 -0.9929001,-0.08303 C 6.442631,14.435139 5.915681,13.781788 5.4906306,12.973359 5.0655801,12.164931 4.6624546,11.20624 4.3566536,10.423316 3.9930969,9.492524 3.669748,8.7823262 3.3705019,8.0472824 3.4054011,8.0371444 3.4328789,8.0398238 3.4682948,8.0291643 4.5325003,7.7086944 5.8146904,7.1345456 7.1536032,6.3615238 8.4925161,5.5885023 9.6291478,4.7661439 10.438784,4.0047483 c 0.03983,-0.037458 0.05742,-0.07456 0.09568,-0.1116226 z"
     style="color:#000000;font-style:normal;font-variant:normal;font-weight:normal;font-stretch:normal;font-size:medium;line-height:normal;font-family:sans-serif;font-variant-ligatures:normal;font-variant-position:normal;font-variant-caps:normal;font-variant-numeric:normal;font-variant-alternates:normal;font-feature-settings:normal;text-indent:0;text-align:start;text-decoration:none;text-decoration-line:none;text-decoration-style:solid;text-decoration-color:#000000;letter-spacing:normal;word-spacing:normal;text-transform:none;writing-mode:lr-tb;direction:ltr;text-orientation:mixed;dominant-baseline:auto;baseline-shift:baseline;text-anchor:start;white-space:normal;shape-padding:0;clip-rule:nonzero;display:inline;overflow:visible;visibility:visible;opacity:1;isolation:auto;mix-blend-mode:normal;color-interpolation:sRGB;color-interpolation-filters:linearRGB;solid-color:#000000;solid-opacity:1;vector-effect:none;fill:#8a8a8a;fill-opacity:1;fill-rule:nonzero;stroke:none;stroke-width:2;stroke-linecap:butt;stroke-linejoin:miter;stroke-miterlimit:4;stroke-dasharray:none;stroke-dashoffset:0;stroke-opacity:1;color-rendering:auto;image-rendering:auto;shape-rendering:auto;text-rendering:auto;enable-background:accumulate" />
</svg>
